<svg width="41" height="31" viewBox="0 0 41 31" fill="none" xmlns="http://www.w3.org/2000/svg">
  <path fill-rule="evenodd" clip-rule="evenodd" d="M20.5 28C31.8218 28 41 24 41 14C41 4 31.8218 0 20.5 0C9.17816 0 0 3 0 14C0 23.7607 4.46131 26.7163 11 27.6113C11.3996 27.666 10.8175 28.4551 10.2374 29.2415C9.6511 30.0362 9.06685 30.8282 9.5 30.8567C9.9074 30.8834 11.3309 30.1476 12.7549 29.4115L12.7549 29.4115C14.1646 28.6828 15.5748 27.9539 16 27.9644C17.4481 28 18.9541 28 20.5 28ZM11 17C12.6569 17 14 15.6569 14 14C14 12.3431 12.6569 11 11 11C9.34315 11 8 12.3431 8 14C8 15.6569 9.34315 17 11 17ZM23 14C23 15.6569 21.6569 17 20 17C18.3431 17 17 15.6569 17 14C17 12.3431 18.3431 11 20 11C21.6569 11 23 12.3431 23 14ZM29 17C30.6569 17 32 15.6569 32 14C32 12.3431 30.6569 11 29 11C27.3431 11 26 12.3431 26 14C26 15.6569 27.3431 17 29 17Z" fill="white"/>
</svg>